<mxfile host="app.diagrams.net" modified="2020-10-23T02:31:07.098Z" agent="5.0 (Windows NT 10.0; Win64; x64) AppleWebKit/537.36 (KHTML, like Gecko) Chrome/86.0.4240.75 Safari/537.36" etag="VKXiFrMdZLit82r8Kszx" version="13.8.1" type="github">
  <diagram id="C5RBs43oDa-KdzZeNtuy" name="Page-1">
    <mxGraphModel dx="1038" dy="580" grid="1" gridSize="10" guides="1" tooltips="1" connect="1" arrows="1" fold="1" page="1" pageScale="1" pageWidth="1169" pageHeight="1654" background="#F1FAEE" math="0" shadow="0">
      <root>
        <mxCell id="WIyWlLk6GJQsqaUBKTNV-0" />
        <mxCell id="WIyWlLk6GJQsqaUBKTNV-1" parent="WIyWlLk6GJQsqaUBKTNV-0" />
        <mxCell id="MEAkReDpDYvvPDP6YqUq-0" value="课程&lt;br&gt;（课程类型，学科）" style="html=1;fillColor=#A8DADC;strokeColor=#457B9D;fontColor=#1D3557;" vertex="1" parent="WIyWlLk6GJQsqaUBKTNV-1">
          <mxGeometry x="670" y="100" width="110" height="50" as="geometry" />
        </mxCell>
        <mxCell id="MEAkReDpDYvvPDP6YqUq-1" value="学生" style="html=1;fillColor=#A8DADC;strokeColor=#457B9D;fontColor=#1D3557;" vertex="1" parent="WIyWlLk6GJQsqaUBKTNV-1">
          <mxGeometry x="310" y="120" width="110" height="50" as="geometry" />
        </mxCell>
        <mxCell id="MEAkReDpDYvvPDP6YqUq-2" value="班级" style="html=1;fillColor=#A8DADC;strokeColor=#457B9D;fontColor=#1D3557;" vertex="1" parent="WIyWlLk6GJQsqaUBKTNV-1">
          <mxGeometry x="500" y="220" width="110" height="50" as="geometry" />
        </mxCell>
        <mxCell id="MEAkReDpDYvvPDP6YqUq-3" value="课时" style="html=1;fillColor=#A8DADC;strokeColor=#457B9D;fontColor=#1D3557;" vertex="1" parent="WIyWlLk6GJQsqaUBKTNV-1">
          <mxGeometry x="910" y="100" width="110" height="50" as="geometry" />
        </mxCell>
        <mxCell id="MEAkReDpDYvvPDP6YqUq-8" value="" style="edgeStyle=entityRelationEdgeStyle;fontSize=12;html=1;endArrow=ERzeroToMany;endFill=1;strokeColor=#457B9D;fillColor=#A8DADC;entryX=0;entryY=0.5;entryDx=0;entryDy=0;" edge="1" parent="WIyWlLk6GJQsqaUBKTNV-1" source="MEAkReDpDYvvPDP6YqUq-1" target="MEAkReDpDYvvPDP6YqUq-2">
          <mxGeometry width="100" height="100" relative="1" as="geometry">
            <mxPoint x="410" y="190" as="sourcePoint" />
            <mxPoint x="290" y="190" as="targetPoint" />
          </mxGeometry>
        </mxCell>
        <mxCell id="MEAkReDpDYvvPDP6YqUq-11" value="用户" style="html=1;rounded=0;sketch=0;strokeColor=#457B9D;fillColor=#A8DADC;fontColor=#1D3557;" vertex="1" parent="WIyWlLk6GJQsqaUBKTNV-1">
          <mxGeometry x="120" y="30" width="110" height="50" as="geometry" />
        </mxCell>
        <mxCell id="MEAkReDpDYvvPDP6YqUq-12" value="" style="edgeStyle=entityRelationEdgeStyle;fontSize=12;html=1;endArrow=ERzeroToMany;endFill=1;strokeColor=#457B9D;fillColor=#A8DADC;exitX=1;exitY=0.5;exitDx=0;exitDy=0;" edge="1" parent="WIyWlLk6GJQsqaUBKTNV-1" source="MEAkReDpDYvvPDP6YqUq-11" target="MEAkReDpDYvvPDP6YqUq-1">
          <mxGeometry width="100" height="100" relative="1" as="geometry">
            <mxPoint x="330" y="95" as="sourcePoint" />
            <mxPoint x="390" y="60" as="targetPoint" />
          </mxGeometry>
        </mxCell>
        <mxCell id="MEAkReDpDYvvPDP6YqUq-16" value="" style="edgeStyle=entityRelationEdgeStyle;fontSize=12;html=1;endArrow=ERzeroToOne;endFill=1;strokeColor=#457B9D;fillColor=#A8DADC;exitX=0;exitY=0.5;exitDx=0;exitDy=0;entryX=1;entryY=0.5;entryDx=0;entryDy=0;" edge="1" parent="WIyWlLk6GJQsqaUBKTNV-1" source="MEAkReDpDYvvPDP6YqUq-0" target="MEAkReDpDYvvPDP6YqUq-2">
          <mxGeometry width="100" height="100" relative="1" as="geometry">
            <mxPoint x="400" y="430" as="sourcePoint" />
            <mxPoint x="500" y="330" as="targetPoint" />
          </mxGeometry>
        </mxCell>
        <mxCell id="MEAkReDpDYvvPDP6YqUq-17" value="课程类型" style="html=1;rounded=0;sketch=0;strokeColor=#d6b656;fillColor=#fff2cc;" vertex="1" parent="WIyWlLk6GJQsqaUBKTNV-1">
          <mxGeometry x="780" y="20" width="110" height="50" as="geometry" />
        </mxCell>
        <mxCell id="MEAkReDpDYvvPDP6YqUq-18" value="参课记录（上课记录）" style="html=1;rounded=0;sketch=0;strokeColor=#457B9D;fillColor=#A8DADC;fontColor=#1D3557;" vertex="1" parent="WIyWlLk6GJQsqaUBKTNV-1">
          <mxGeometry x="200" y="390" width="140" height="70" as="geometry" />
        </mxCell>
        <mxCell id="MEAkReDpDYvvPDP6YqUq-19" value="课堂" style="html=1;rounded=0;sketch=0;strokeColor=#457B9D;fillColor=#A8DADC;fontColor=#1D3557;" vertex="1" parent="WIyWlLk6GJQsqaUBKTNV-1">
          <mxGeometry x="497.5" y="360" width="115" height="60" as="geometry" />
        </mxCell>
        <mxCell id="MEAkReDpDYvvPDP6YqUq-21" value="" style="shape=flexArrow;endArrow=classic;html=1;strokeColor=#457B9D;fillColor=#A8DADC;fontColor=#1D3557;" edge="1" parent="WIyWlLk6GJQsqaUBKTNV-1">
          <mxGeometry width="50" height="50" relative="1" as="geometry">
            <mxPoint x="140" y="140" as="sourcePoint" />
            <mxPoint x="140" y="410" as="targetPoint" />
          </mxGeometry>
        </mxCell>
        <mxCell id="MEAkReDpDYvvPDP6YqUq-22" value="" style="rounded=0;whiteSpace=wrap;html=1;sketch=0;strokeColor=#457B9D;fillColor=#A8DADC;fontColor=#1D3557;" vertex="1" parent="WIyWlLk6GJQsqaUBKTNV-1">
          <mxGeometry x="80" y="160" width="120" height="20" as="geometry" />
        </mxCell>
        <mxCell id="MEAkReDpDYvvPDP6YqUq-24" value="" style="rounded=0;whiteSpace=wrap;html=1;sketch=0;strokeColor=#457B9D;fillColor=#A8DADC;fontColor=#1D3557;" vertex="1" parent="WIyWlLk6GJQsqaUBKTNV-1">
          <mxGeometry x="80" y="250" width="120" height="20" as="geometry" />
        </mxCell>
        <mxCell id="MEAkReDpDYvvPDP6YqUq-25" value="" style="rounded=0;whiteSpace=wrap;html=1;sketch=0;strokeColor=#457B9D;fillColor=#A8DADC;fontColor=#1D3557;" vertex="1" parent="WIyWlLk6GJQsqaUBKTNV-1">
          <mxGeometry x="80" y="290" width="120" height="20" as="geometry" />
        </mxCell>
        <mxCell id="MEAkReDpDYvvPDP6YqUq-23" value="" style="rounded=0;whiteSpace=wrap;html=1;sketch=0;strokeColor=#457B9D;fillColor=#A8DADC;fontColor=#1D3557;" vertex="1" parent="WIyWlLk6GJQsqaUBKTNV-1">
          <mxGeometry x="80" y="200" width="120" height="20" as="geometry" />
        </mxCell>
        <mxCell id="MEAkReDpDYvvPDP6YqUq-27" value="" style="rounded=0;whiteSpace=wrap;html=1;sketch=0;strokeColor=#457B9D;fillColor=#A8DADC;fontColor=#1D3557;" vertex="1" parent="WIyWlLk6GJQsqaUBKTNV-1">
          <mxGeometry x="80" y="340" width="120" height="20" as="geometry" />
        </mxCell>
        <mxCell id="MEAkReDpDYvvPDP6YqUq-28" value="课次" style="html=1;rounded=0;sketch=0;strokeColor=#457B9D;fillColor=#A8DADC;fontColor=#1D3557;" vertex="1" parent="WIyWlLk6GJQsqaUBKTNV-1">
          <mxGeometry x="680" y="230" width="115" height="60" as="geometry" />
        </mxCell>
        <mxCell id="MEAkReDpDYvvPDP6YqUq-29" value="学习计划" style="html=1;rounded=0;sketch=0;strokeColor=#457B9D;fillColor=#A8DADC;fontColor=#1D3557;" vertex="1" parent="WIyWlLk6GJQsqaUBKTNV-1">
          <mxGeometry x="690" y="370" width="115" height="60" as="geometry" />
        </mxCell>
      </root>
    </mxGraphModel>
  </diagram>
</mxfile>
